<?xml version="1.0" encoding="utf-8"?>
<svg version="1.1" id="Layer_1" xmlns="http://www.w3.org/2000/svg" xmlns:xlink="http://www.w3.org/1999/xlink" x="0px" y="0px"
	 viewBox="0 0 60 60" style="enable-background:new 0 0 60 60;" xml:space="preserve">
<style type="text/css">
	.st0{fill:#FFFFFF;}
	.st1{fill:#FFFFFF;stroke:#000000;stroke-miterlimit:10;}
	.st2{fill:none;stroke:#000000;stroke-miterlimit:10;}
	.st3{fill:none;stroke:#000000;stroke-width:2;stroke-miterlimit:10;}
</style>
<g>
	<path class="st0" d="M3.7,58.5c-1.2,0-2.2-1-2.2-2.2V3.7c0-1.2,1-2.2,2.2-2.2h52.5c1.2,0,2.2,1,2.2,2.2v52.5c0,1.2-1,2.2-2.2,2.2
		H3.7z"/>
	<path d="M56.3,2c1,0,1.7,0.8,1.7,1.7v52.5c0,1-0.8,1.7-1.7,1.7H3.7c-1,0-1.7-0.8-1.7-1.7V3.7C2,2.8,2.8,2,3.7,2H56.3 M56.3,1H3.7
		C2.2,1,1,2.2,1,3.7v52.5C1,57.8,2.2,59,3.7,59h52.5c1.5,0,2.7-1.2,2.7-2.7V3.7C59,2.2,57.8,1,56.3,1L56.3,1z"/>
</g>
<path class="st1" d="M22.4,18.5h14.1c2.2,0,3.9,1.8,3.9,3.9v24.9c0,0.6-0.5,1.2-1.2,1.2H19.7c-0.6,0-1.2-0.5-1.2-1.2V22.4
	C18.5,20.3,20.3,18.5,22.4,18.5z"/>
<g>
	<path class="st0" d="M25.7,16.5c-0.1,0-0.2-0.1-0.2-0.2V9.8c0-1.3,1-2.3,2.3-2.3h3.4c1.3,0,2.3,1,2.3,2.3v6.6
		c0,0.1-0.1,0.2-0.2,0.2H25.7z"/>
	<path d="M31.2,8c1,0,1.8,0.8,1.8,1.8V16h-7V9.8c0-1,0.8-1.8,1.8-1.8H31.2 M31.2,7h-3.4C26.2,7,25,8.2,25,9.8v6.6
		c0,0.4,0.3,0.7,0.7,0.7h7.7c0.4,0,0.7-0.3,0.7-0.7V9.8C34,8.2,32.8,7,31.2,7L31.2,7z"/>
</g>
<g>
	<line class="st2" x1="34" y1="11.5" x2="43" y2="11.5"/>
</g>
<line class="st3" x1="29.5" y1="37" x2="29.5" y2="29"/>
<line class="st3" x1="25.5" y1="33" x2="33.5" y2="33"/>
</svg>
