<svg version="1.1" id="Layer_1" xmlns="http://www.w3.org/2000/svg" xmlns:xlink="http://www.w3.org/1999/xlink" x="0px" y="0px"
	 viewBox="0 0 60 60" style="enable-background:new 0 0 60 60;" xml:space="preserve">
<style type="text/css">
	.st0{fill:#FFFFFF;}
	.st1{fill:none;stroke:#000000;stroke-miterlimit:10;}
	.st2{fill:none;stroke:#000000;stroke-linecap:round;stroke-miterlimit:10;}
</style>
<g>
	<path class="st0" d="M3.7,58.5c-1.2,0-2.2-1-2.2-2.2V3.7c0-1.2,1-2.2,2.2-2.2h52.5c1.2,0,2.2,1,2.2,2.2v52.5c0,1.2-1,2.2-2.2,2.2
		H3.7z"/>
	<path d="M56.3,2c1,0,1.7,0.8,1.7,1.7v52.5c0,1-0.8,1.7-1.7,1.7H3.7c-1,0-1.7-0.8-1.7-1.7V3.7C2,2.8,2.8,2,3.7,2H56.3 M56.3,1H3.7
		C2.2,1,1,2.2,1,3.7v52.5C1,57.8,2.2,59,3.7,59h52.5c1.5,0,2.7-1.2,2.7-2.7V3.7C59,2.2,57.8,1,56.3,1L56.3,1z"/>
</g>
<g>
	<g>
		<polygon class="st0" points="8.5,44.5 8.5,18.5 48.4,18.5 49.8,20.1 52.3,22.9 52.3,44.5 		"/>
		<path d="M48.2,19l1.3,1.5l2.3,2.6V44H9V19H48.2 M48.6,18H8v27h44.8V22.7l-2.6-2.9L48.6,18L48.6,18z"/>
	</g>
	<polyline class="st1" points="52.4,23 48.5,23 48.1,23 48.1,18.5 	"/>
	<line class="st2" x1="12.7" y1="23.9" x2="31.7" y2="23.9"/>
	<line class="st2" x1="12.7" y1="29.3" x2="31.7" y2="29.3"/>
	<line class="st2" x1="12.7" y1="32.8" x2="31.7" y2="32.8"/>
	<line class="st2" x1="12.7" y1="38.3" x2="23.9" y2="38.3"/>
	<g>
		<ellipse class="st0" cx="43.3" cy="33.3" rx="3.8" ry="4"/>
		<path d="M43.3,29.8c1.8,0,3.3,1.6,3.3,3.5s-1.5,3.5-3.3,3.5S40,35.2,40,33.3S41.5,29.8,43.3,29.8 M43.3,28.8c-2.4,0-4.3,2-4.3,4.5
			s1.9,4.5,4.3,4.5s4.3-2,4.3-4.5S45.7,28.8,43.3,28.8L43.3,28.8z"/>
	</g>
	<g>
		<path d="M43.3,35.5c-1.1,0-2.1-1-2.1-2.2s0.9-2.2,2.1-2.2s2.1,1,2.1,2.2S44.5,35.5,43.3,35.5z"/>
		<path d="M43.3,31.6c0.9,0,1.6,0.8,1.6,1.7S44.2,35,43.3,35s-1.6-0.8-1.6-1.7S42.4,31.6,43.3,31.6 M43.3,30.6
			c-1.4,0-2.6,1.2-2.6,2.7c0,1.5,1.2,2.7,2.6,2.7s2.6-1.2,2.6-2.7C45.9,31.8,44.8,30.6,43.3,30.6L43.3,30.6z"/>
	</g>
	<g>
		<path d="M40.8,41.4l-0.8,0.3l1.1-3.6c0.1,0.1,0.2,0.1,0.2,0.1c0.1,0,0.3,0.2,0.4,0.3c0.2,0.1,0.4,0.3,0.6,0.4l0.1,0l-1.1,3.3
			L40.8,41.4z"/>
		<path d="M41.4,38.8C41.4,38.8,41.4,38.9,41.4,38.8c0.2,0.1,0.3,0.2,0.4,0.3l-0.7,1.9L41,40.9l-0.3,0.1L41.4,38.8 M40.8,37.4
			l-1.6,5.1l1.4-0.5l0.9,1.3l1.7-4.9c0,0-0.4,0.1-0.5,0.1c0,0-0.1,0-0.1,0c-0.4-0.2-0.7-0.7-1.2-0.7C41.2,37.7,40.8,37.4,40.8,37.4
			L40.8,37.4z"/>
	</g>
	<g>
		<path d="M44.6,38.8c0.2-0.1,0.2-0.1,0.2-0.2c0.1-0.1,0.3-0.1,0.5-0.1c0.2,0,0.5-0.1,0.7-0.2c0,0,0,0,0.1,0l1.8,3.6L47,41.7
			l-0.3,0.9L44.6,38.8z"/>
		<path d="M45.9,38.9l1.1,2.3l-0.4-0.1l-0.1,0.2L45.3,39c0,0,0.1,0,0.1,0C45.5,39,45.7,39,45.9,38.9 M46.2,37.3c0,0-0.2,0.5-0.4,0.6
			c-0.4,0.2-1,0.1-1.3,0.4c-0.1,0.1-0.6,0.2-0.6,0.2l2.8,5.3l0.6-1.5l1.5,0.3L46.2,37.3L46.2,37.3z"/>
	</g>
</g>
</svg>
