<svg version="1.1" id="Layer_1" xmlns="http://www.w3.org/2000/svg" xmlns:xlink="http://www.w3.org/1999/xlink" x="0px" y="0px"
	 viewBox="0 0 60 60" style="enable-background:new 0 0 60 60;" xml:space="preserve">
<style type="text/css">
	.st0{fill:#FFFFFF;}
	.st1{fill:#FFFFFF;stroke:#000000;stroke-width:0.75;stroke-miterlimit:10;}
	.st2{fill:none;stroke:#000000;stroke-width:0.75;stroke-miterlimit:10;}
	.st3{fill:none;stroke:#000000;stroke-width:0.5;stroke-miterlimit:10;}
	.st4{fill:none;stroke:#000000;stroke-miterlimit:10;}
</style>
<g>
	<path class="st0" d="M3.7,58.5c-1.2,0-2.2-1-2.2-2.2V3.7c0-1.2,1-2.2,2.2-2.2h52.5c1.2,0,2.2,1,2.2,2.2v52.5c0,1.2-1,2.2-2.2,2.2
		H3.7z"/>
	<path d="M56.3,2c1,0,1.7,0.8,1.7,1.7v52.5c0,1-0.8,1.7-1.7,1.7H3.7c-1,0-1.7-0.8-1.7-1.7V3.7C2,2.8,2.8,2,3.7,2H56.3 M56.3,1H3.7
		C2.2,1,1,2.2,1,3.7v52.5C1,57.8,2.2,59,3.7,59h52.5c1.5,0,2.7-1.2,2.7-2.7V3.7C59,2.2,57.8,1,56.3,1L56.3,1z"/>
</g>
<g>
	
		<rect x="16.8" y="21.7" transform="matrix(0.7071 -0.7071 0.7071 0.7071 -10.9693 30.0178)" class="st0" width="28" height="13.1"/>
	<path d="M36,14.4l8.6,8.6L25.5,42.1l-8.6-8.6L36,14.4 M36,13L15.5,33.5l10,10L46,23L36,13L36,13z"/>
</g>
<rect x="19.2" y="34.6" transform="matrix(0.7071 -0.7071 0.7071 0.7071 -21.5122 25.6508)" class="st1" width="2" height="8.5"/>
<g>
	<rect x="31.5" y="17.5" transform="matrix(0.7071 -0.7071 0.7071 0.7071 -1.366 33.702)" class="st0" width="17" height="2"/>
	<path d="M45.3,12.5l0.7,0.7L34.7,24.5L34,23.8L45.3,12.5 M45.3,11.1L32.6,23.8l2.1,2.1l12.7-12.7L45.3,11.1L45.3,11.1z"/>
</g>
<line class="st2" x1="42.5" y1="8.5" x2="50.5" y2="16.5"/>
<line class="st3" x1="29.5" y1="20.5" x2="38.5" y2="29.5"/>
<line class="st3" x1="28.5" y1="40.5" x2="25.5" y2="37.5"/>
<line class="st3" x1="30.5" y1="38.5" x2="27.5" y2="35.5"/>
<line class="st3" x1="32.5" y1="36.5" x2="29.5" y2="33.5"/>
<line class="st3" x1="34.5" y1="34.5" x2="31.5" y2="31.5"/>
<line class="st3" x1="36.5" y1="32.5" x2="33.5" y2="29.5"/>
<line class="st3" x1="40.5" y1="28.5" x2="37.5" y2="25.5"/>
<line class="st3" x1="42.5" y1="26.5" x2="39.5" y2="23.5"/>
<polygon class="st4" points="19.3,38.9 12.6,45.6 12.6,45.6 19.3,38.9 "/>
</svg>
