<svg version="1.1" id="Layer_1" xmlns="http://www.w3.org/2000/svg" xmlns:xlink="http://www.w3.org/1999/xlink" x="0px" y="0px"
	 viewBox="0 0 165 50" style="enable-background:new 0 0 165 50;" xml:space="preserve">
<style type="text/css">
	.st0{fill:none;stroke:#FFFFFF;stroke-width:3;stroke-miterlimit:10;}
	.st1{fill:#FFFFFF;}
	.st2{font-family:'ArialMT';}
	.st3{font-size:17.392px;}
</style>
<path id="path4_7_" class="st0" d="M34.3,4.9c-2.4-1.4-6.1,1-11.1-0.5c-1.1-0.3-8-1.6-9.6-1.6C7.4,2.8,2.4,7.8,2.4,14
	c0,3.2,1.4,6.3,3.8,8.4c0.1,10.3,3.4,25.4,8.3,25.4c2.4,0,3.2-3.3,4.2-7.5C19.8,36,21,31,24,31s4.2,5,5.2,9.4c1,4.2,1.8,7.5,4.2,7.5
	"/>
<text transform="matrix(1 0 0 1 39.7256 40.624)" class="st1 st2 st3">HARLEV</text>
<text transform="matrix(1 0 0 1 6.124 25.2227)" class="st1 st2 st3">TANDLÆGEHUSET</text>
</svg>
