<svg version="1.1" id="Layer_1" xmlns="http://www.w3.org/2000/svg" xmlns:xlink="http://www.w3.org/1999/xlink" x="0px" y="0px"
	 viewBox="0 0 60 60" style="enable-background:new 0 0 60 60;" xml:space="preserve">
<style type="text/css">
	.st0{fill:#FFFFFF;}
	.st1{fill:none;stroke:#000000;stroke-miterlimit:10;}
</style>
<g>
	<path class="st0" d="M3.7,58.5c-1.2,0-2.2-1-2.2-2.2V3.7c0-1.2,1-2.2,2.2-2.2h52.5c1.2,0,2.2,1,2.2,2.2v52.5c0,1.2-1,2.2-2.2,2.2
		H3.7z"/>
	<path d="M56.3,2c1,0,1.7,0.8,1.7,1.7v52.5c0,1-0.8,1.7-1.7,1.7H3.7c-1,0-1.7-0.8-1.7-1.7V3.7C2,2.8,2.8,2,3.7,2H56.3 M56.3,1H3.7
		C2.2,1,1,2.2,1,3.7v52.5C1,57.8,2.2,59,3.7,59h52.5c1.5,0,2.7-1.2,2.7-2.7V3.7C59,2.2,57.8,1,56.3,1L56.3,1z"/>
</g>
<g transform="translate(0.000000,511.000000) scale(0.100000,-0.100000)">
	<path d="M187.5,4899.1c-14.3-25.1-47.1-83.8-47.3-84.8c-0.2-1.1,1.4-2.3,11.3-8.4c7-4.2,12.1-7,12.8-6.9
		c0.9,0.1,7.1,10.7,26.1,44.5c13.7,24.3,24.8,44.7,24.8,45.1c-0.2,1-23,15.1-24.3,15.1C190.6,4903.7,189,4901.6,187.5,4899.1z"/>
	<path d="M385,4896.6c-9-5.5-11.4-7.4-11.4-8.3c0.1-1.6,49-88.7,50.2-89.3c1.1-0.6,23.9,13,24.5,14.6c0.5,1.6-49.3,89.8-50.8,90
		C396.9,4903.6,391.3,4900.5,385,4896.6z"/>
	<path d="M291.2,4879c-9.4-0.8-19-2.3-24-3.9c-3.7-1.2-5-1.9-6.7-3.9c-3.4-4-17.5-24-21.5-30.5c-3.6-5.8-3.8-6.4-3.9-9.9
		c-0.1-3.6,0-3.8,1.7-4.6c2.2-1.1,9.2-0.2,14.2,1.9c7.2,2.9,16.3,10.5,21.1,17.8l2.1,3.1l7.5,2.4c4.1,1.3,8,2.4,8.7,2.4
		c2.1,0,27.5-13.7,41.4-22.4c13.5-8.4,38.1-25.9,52.1-37.2l7.1-5.8l2.5,1.4c4,2.3,8.1,5.7,13.6,11.1l5.1,5.1l-19.2,33.9
		c-10.5,18.7-19.3,34.2-19.5,34.5c-0.2,0.2-2.7-0.2-5.5-0.8c-6.8-1.7-12.4-1.3-25.9,1.7c-15.6,3.6-21.7,4.3-34.1,4.3
		C301.9,4879.5,294.4,4879.3,291.2,4879z"/>
	<path d="M195.4,4839.2l-19.7-35l3.1-3.7c1.7-2,4.5-5.4,6.1-7.5c1.6-2.1,3-3.8,3.1-3.8s1.4,0.9,2.9,2.1c8.1,6.1,19.8,2.8,24.9-7.1
		l1.4-2.9l2.7,3.7c3.5,4.8,7,6.7,12.5,6.7c9.6,0,17.4-7.8,17.5-17.6l0.1-4.1h2.2c3.4,0,9.4-3.4,12-6.9c2.7-3.4,4.3-8.4,4-11.7
		l-0.2-2.3l2.7-0.4c6.1-0.9,11.4-4.6,14.2-10.1c2.9-5.7,2.7-11.7-0.7-16.7c-1.1-1.7-1.9-3.3-1.6-3.6c0.2-0.2,2.2-1,4.4-1.7
		c14.3-4.6,26-5.6,31.7-2.8c3.1,1.6,8.9,7,8.5,8.1c-0.1,0.4-6.9,3.9-15.2,7.9c-8.3,4-15.2,7.6-15.5,8c-0.9,1.4-0.5,3.4,1,4.3
		c1.4,1,1.9,0.8,17.9-7c17.4-8.4,19.3-9.1,25.5-8.2c3.8,0.6,6.6,3.2,7.8,7.2c1.7,5.7,2.9,4.6-18.2,16.7
		c-10.5,6.1-19.6,11.6-20.2,12.2c-0.6,0.5-1.1,1.4-1.1,1.9c0,1.4,2.4,3.4,3.6,3.1c0.6-0.2,10.1-5.5,21-11.8
		c19.7-11.4,19.9-11.5,23.4-11.5c4.5,0,7.1,0.9,9.6,3.3c2.3,2.2,3.3,5,3,9l-0.2,3l-22.9,13.8c-12.6,7.6-23.3,14.3-23.7,15
		c-0.7,1-0.7,1.6-0.2,2.7c1.4,3,3,2.3,28.9-13.3l24.6-14.8l4.5,0.2c3.6,0.1,4.9,0.5,6.5,1.6c4.5,3.3,5.7,9.9,2.7,14.5
		c-2,3-9.2,9-25.1,20.8c-25.7,19.2-44.4,31.1-69.5,44l-5.6,2.9l-5.6-1.7l-5.7-1.7l-4.1-5.1c-10.1-12.5-23.9-19.9-36.1-19.3
		c-4.7,0.2-6.5,1.1-8.9,4.3c-1,1.3-1.3,2.5-1.2,6c0.1,6.4,2.3,10.9,13.3,26.5c2.8,3.9,5,7.4,5,7.5c0,0.2-3.3,1-7.4,1.6
		c-9.6,1.4-14.3,2.9-19.6,6.1c-2.4,1.4-4.5,2.7-4.5,2.7C215.2,4874.2,206.3,4858.5,195.4,4839.2z"/>
	<path d="M196,4787.2c-2-1.1-9.5-11.3-10.2-13.9c-1.5-5.6,3.5-12.6,9.9-13.7c3.9-0.7,6,0.7,11,7.5c4.2,5.7,4.5,6.3,4.5,9
		c0,3.7-0.8,5.8-3.2,8.4C204.6,4787.9,199.6,4789.1,196,4787.2z"/>
	<path d="M228.9,4784.8c-1.3-0.6-4.9-5.1-12.6-15.5c-5.9-8-11.1-15.3-11.5-16.1c-3-5.7,2.5-14.3,9.3-15c5.2-0.5,5.9,0.2,14.9,12.5
		c15.2,20.7,14.6,19.7,14.6,22.9C243.7,4781.3,235.3,4787.8,228.9,4784.8z"/>
	<path d="M247.1,4763.1c-1.7-0.9-17.8-22-19.4-25.5c-2.7-6,2.5-14.3,9.4-15c5.1-0.5,5.8,0.2,14.1,11.5c11,15.2,10.7,14.6,10.7,18.1
		c0,3.9-1.8,7.2-5.1,9.5C253.7,4763.8,249.6,4764.4,247.1,4763.1z"/>
	<path d="M265.2,4741.2c-2.2-1.3-12.9-16-13.7-18.8c-1.3-4.3,1.7-10.1,6.7-12.7c2.8-1.4,5.7-1.4,8.2-0.1
		c2.3,1.3,13.2,15.7,14.1,18.8c0.9,3-0.2,6.7-3,9.8C274,4742.2,268.9,4743.5,265.2,4741.2z"/>
</g>
<path class="st1" d="M29.5,53.3c-0.5,0-0.9-0.2-1.3-0.5L10.5,35.7c-0.2-0.2-0.5-0.4-0.8-0.7s-0.9-1-1.6-1.9
	c-0.7-0.9-1.4-1.8-1.9-2.8c-0.6-0.9-1.1-2.1-1.5-3.4C4.2,25.5,4,24.2,4,22.9c0-4.2,1.2-7.4,3.6-9.8s5.7-3.5,10-3.5
	c1.2,0,2.4,0.2,3.6,0.6c1.2,0.4,2.4,1,3.4,1.7c1.1,0.7,2,1.3,2.7,1.9c0.8,0.6,1.5,1.3,2.2,1.9c0.7-0.7,1.4-1.3,2.2-1.9
	c0.8-0.6,1.7-1.3,2.7-1.9c1.1-0.7,2.2-1.2,3.4-1.7c1.2-0.4,2.4-0.6,3.6-0.6c4.3,0,7.6,1.2,10,3.5c2.4,2.4,3.6,5.6,3.6,9.8
	c0,4.2-2.2,8.5-6.5,12.8L30.8,52.8C30.4,53.1,30,53.3,29.5,53.3"/>
</svg>
