<svg version="1.1" id="Layer_1" xmlns="http://www.w3.org/2000/svg" xmlns:xlink="http://www.w3.org/1999/xlink" x="0px" y="0px"
	 viewBox="0 0 60 60" style="enable-background:new 0 0 60 60;" xml:space="preserve">
<style type="text/css">
	.st0{fill:#FFFFFF;}
	.st1{stroke:#000000;stroke-width:3;stroke-miterlimit:10;}
</style>
<g>
	<path class="st0" d="M3.7,58.5c-1.2,0-2.2-1-2.2-2.2V3.7c0-1.2,1-2.2,2.2-2.2h52.5c1.2,0,2.2,1,2.2,2.2v52.5c0,1.2-1,2.2-2.2,2.2
		H3.7z"/>
	<path d="M56.3,2c1,0,1.7,0.8,1.7,1.7v52.5c0,1-0.8,1.7-1.7,1.7H3.7c-1,0-1.7-0.8-1.7-1.7V3.7C2,2.8,2.8,2,3.7,2H56.3 M56.3,1H3.7
		C2.2,1,1,2.2,1,3.7v52.5C1,57.8,2.2,59,3.7,59h52.5c1.5,0,2.7-1.2,2.7-2.7V3.7C59,2.2,57.8,1,56.3,1L56.3,1z"/>
</g>
<polygon class="st1" points="35.1,54 44,54 41,32 33.9,32 "/>
<polygon class="st1" points="22.4,54 13.5,54 16.5,32 23.6,32 "/>
<polygon points="29.5,24.5 28.5,24.5 3.5,24.5 3.5,28.5 9.5,28.5 9.5,31.5 13.5,31.5 13.8,28.5 29,28.5 44.2,28.5 44.5,31.5 
	48.5,31.5 48.5,28.5 54.5,28.5 54.5,24.5 "/>
<polygon class="st1" points="32.7,21.4 39.2,21.4 36.9,5 31.5,5 "/>
<polygon class="st1" points="24.8,21.4 18.3,21.4 20.6,5 26,5 "/>
</svg>
