<?xml version="1.0" encoding="utf-8"?>
<!-- Generator: Adobe Illustrator 23.0.1, SVG Export Plug-In . SVG Version: 6.00 Build 0)  -->
<svg version="1.1" id="Layer_1" xmlns="http://www.w3.org/2000/svg" xmlns:xlink="http://www.w3.org/1999/xlink" x="0px" y="0px"
	 viewBox="0 0 60 60" style="enable-background:new 0 0 60 60;" xml:space="preserve">
<style type="text/css">
	.st0{fill:#FFFFFF;}
</style>
<g>
	<path class="st0" d="M3.7,58.5c-1.2,0-2.2-1-2.2-2.2V3.7c0-1.2,1-2.2,2.2-2.2h52.5c1.2,0,2.2,1,2.2,2.2v52.5c0,1.2-1,2.2-2.2,2.2
		L3.7,58.5L3.7,58.5z"/>
	<path d="M56.3,2c1,0,1.7,0.8,1.7,1.7v52.5c0,1-0.8,1.7-1.7,1.7H3.7c-1,0-1.7-0.8-1.7-1.7V3.7C2,2.8,2.8,2,3.7,2H56.3 M56.3,1H3.7
		C2.2,1,1,2.2,1,3.7v52.5C1,57.8,2.2,59,3.7,59h52.5c1.5,0,2.7-1.2,2.7-2.7V3.7C59,2.2,57.8,1,56.3,1L56.3,1z"/>
</g>
<path d="M49.8,29.3c-0.2-0.2-0.6-0.4-1.2-0.5c0-0.2-0.1-0.3-0.1-0.5c-0.2-0.5-0.5-0.7-1-0.8c-0.8-0.1-1.7,0.3-2.3,0.6
	c-1.3-4.5-5-8.2-10-9.8c0.4-0.8,0.5-1.6,0.5-2.5c-0.1-3.3-2.7-5.9-5.9-5.9c-3.3,0-5.9,2.7-5.9,5.9c0,0.9,0.2,1.8,0.6,2.6
	c-1.7,0.5-3.3,1.4-4.7,2.4c-1.6-0.9-3.3-0.8-4.5,0.1l-0.6,0.5l2,2.7c-0.9,1.3-1.6,2.8-2.1,4.4h-0.8c-1.3,0-2.3,1-2.3,2.3v6.6
	c0,1.3,1,2.3,2.3,2.3H17c0.9,1.2,2.1,2.3,3.4,3.1v3.1c0,0.9,0.7,1.7,1.5,1.7h2.8c0.9,0,1.5-0.8,1.5-1.7v-0.7
	c2.2,0.5,4.4,0.5,6.6,0.1v0.7c0,0.9,0.7,1.7,1.5,1.7h2.8c0.9,0,1.5-0.8,1.5-1.7V43c4.2-2.6,6.8-6.9,6.8-11.5c0-0.9-0.1-1.8-0.3-2.7
	c0.5-0.4,1.4-0.8,2-0.6c0.2,0,0.3,0.2,0.4,0.3c-0.5-0.1-0.9-0.1-1.1,0.2c-0.3,0.2-0.5,0.7-0.3,1.1c0.2,0.4,0.5,0.7,1,0.8
	c0.1,0,0.1,0,0.2,0c0.3,0,0.5-0.2,0.8-0.4c0.2-0.2,0.2-0.5,0.3-0.7c0.3,0.1,0.5,0.2,0.7,0.3c0.2,0.2,0.4,0.2,0.5,0
	C49.9,29.7,49.9,29.4,49.8,29.3z M29.8,11.4c2.4,0,4.5,2,4.5,4.5c0,0.9-0.3,1.8-0.8,2.5l0,0l-0.1,0.1c-0.1,0.2-0.2,0.2-0.2,0.3
	L33,18.8c-0.1,0.1-0.2,0.2-0.3,0.3l-0.1,0.1c-0.2,0.2-0.5,0.4-0.9,0.5l0,0c-0.2,0.1-0.3,0.2-0.4,0.2h-0.1c-0.2,0.1-0.2,0.1-0.4,0.2
	c-0.1,0-0.1,0-0.2,0c-0.2,0-0.2,0.1-0.4,0.1c-0.1,0-0.1,0-0.2,0c-0.2,0-0.3,0-0.5,0c-0.2,0-0.3,0-0.5,0h-0.1c-0.2,0-0.2-0.1-0.4-0.1
	h-0.1c-0.2,0-0.3-0.1-0.4-0.2c0,0,0,0-0.1,0c-0.6-0.2-1.2-0.6-1.6-1.1c0,0,0,0,0-0.1c-0.1-0.1-0.2-0.2-0.3-0.4l-0.1-0.1l-0.1-0.1
	c-0.5-0.7-0.8-1.6-0.8-2.5C25.3,13.3,27.3,11.4,29.8,11.4z M37.7,42l-0.4,0.2v3.8c0,0.1-0.1,0.2-0.1,0.2h-2.7c0,0-0.1-0.1-0.1-0.2
	v-2.5l-0.9,0.2c-2.7,0.6-5.2,0.5-7.7-0.1l-0.9-0.2v2.6c0,0.2-0.1,0.2,0,0.2H22c0,0-0.1-0.1-0.1-0.2v-3.2l0.2-0.6l-0.5-0.3
	c-1.5-0.9-2.7-2-3.7-3.4L17.7,38h-4c-0.5,0-0.8-0.4-0.8-0.8v-6.6c0-0.5,0.4-0.8,0.8-0.8h2l0.2-0.6c0.4-1.7,1.1-3.4,2.3-4.8l0.3-0.5
	l-1.6-2.2c0.7-0.2,1.7,0.1,2.6,0.6l0.5,0.3l0.4-0.3c1.4-1.2,3.1-2,5-2.6c0,0,0,0,0.1,0.1c0.1,0.2,0.2,0.2,0.4,0.4l0.1,0.1
	c0.2,0.1,0.2,0.2,0.4,0.3l0.1,0.1c0.1,0.1,0.1,0.1,0.2,0.2c-0.9,0.2-1.9,0.6-2.8,1c-0.4,0.2-0.5,0.6-0.3,1c0.2,0.4,0.6,0.5,1,0.3
	c1.7-0.9,3.6-1.3,5.6-1.3c2,0,4.1,0.5,5.9,1.4c0.1,0.1,0.2,0.1,0.3,0.1c0.2,0,0.5-0.2,0.6-0.4c0.2-0.4,0.1-0.8-0.3-1
	c-1-0.5-2.1-0.9-3.3-1.3l0.1-0.1c0.1,0,0.1-0.1,0.2-0.1c0.1-0.1,0.2-0.2,0.3-0.3c0.1-0.1,0.1-0.1,0.2-0.2c0.2-0.1,0.2-0.2,0.3-0.4
	l0.1-0.1c5.9,1.6,9.9,6.5,9.9,11.9C44.2,35.7,41.7,39.6,37.7,42z M47.7,29.7c-0.1,0.1-0.1,0.1-0.2,0.1c-0.2,0-0.4-0.1-0.4-0.2
	c0-0.1,0-0.2,0.1-0.3c0.1,0,0.1,0,0.2,0c0.2,0,0.3,0,0.5,0.1C47.7,29.4,47.7,29.6,47.7,29.7z M21.6,29.1c0,0.7-0.5,1.3-1.3,1.3
	s-1.3-0.5-1.3-1.3s0.5-1.3,1.3-1.3S21.6,28.3,21.6,29.1z"/>
</svg>
