<svg version="1.1" id="Layer_1" xmlns="http://www.w3.org/2000/svg" xmlns:xlink="http://www.w3.org/1999/xlink" x="0px" y="0px"
	 viewBox="0 0 60 60" style="enable-background:new 0 0 60 60;" xml:space="preserve">
<style type="text/css">
	.st0{fill:#FFFFFF;}
</style>
<g>
	<g>
		<path class="st0" d="M3.7,58.5c-1.2,0-2.2-1-2.2-2.2V3.7c0-1.2,1-2.2,2.2-2.2h52.5c1.2,0,2.2,1,2.2,2.2v52.5c0,1.2-1,2.2-2.2,2.2
			H3.7z"/>
		<path d="M56.3,2c1,0,1.7,0.8,1.7,1.7v52.5c0,1-0.8,1.7-1.7,1.7H3.7c-1,0-1.7-0.8-1.7-1.7V3.7C2,2.8,2.8,2,3.7,2H56.3 M56.3,1H3.7
			C2.2,1,1,2.2,1,3.7v52.5C1,57.8,2.2,59,3.7,59h52.5c1.5,0,2.7-1.2,2.7-2.7V3.7C59,2.2,57.8,1,56.3,1L56.3,1z"/>
	</g>
	<path d="M54.5,29.8c-0.2-0.2-0.8-0.5-1.5-0.7c0-0.2-0.1-0.4-0.1-0.6c-0.2-0.6-0.7-0.9-1.3-1c-1-0.1-2.2,0.4-3,0.8
		c-1.6-5.7-6.4-10.5-12.8-12.5c0.5-1,0.7-2.1,0.7-3.2C36.4,8.4,33,5,28.9,5c-4.2,0-7.6,3.4-7.6,7.6c0,1.2,0.3,2.3,0.8,3.3
		c-2.2,0.7-4.2,1.8-6,3.1c-2-1.1-4.2-1-5.7,0.1l-0.8,0.6l2.5,3.4c-1.2,1.7-2.1,3.6-2.7,5.6H8.4c-1.6,0-2.9,1.3-2.9,2.9V40
		c0,1.6,1.3,2.9,2.9,2.9h4.2c1.2,1.5,2.7,2.9,4.4,4v4c0,1.2,0.9,2.2,1.9,2.2h3.6c1.1,0,1.9-1,1.9-2.2V50c2.8,0.6,5.6,0.6,8.5,0.1V51
		c0,1.2,0.9,2.2,1.9,2.2h3.6c1.1,0,1.9-1,1.9-2.2v-3.7c5.4-3.3,8.7-8.8,8.7-14.7c0-1.2-0.1-2.3-0.4-3.4c0.7-0.5,1.8-1,2.6-0.8
		c0.3,0,0.4,0.2,0.5,0.4c-0.6-0.1-1.1-0.1-1.4,0.2c-0.4,0.3-0.6,0.9-0.4,1.4c0.2,0.5,0.6,0.9,1.3,1c0.1,0,0.1,0,0.2,0
		c0.4,0,0.7-0.2,1-0.5c0.2-0.2,0.3-0.6,0.4-0.9c0.4,0.1,0.7,0.3,0.9,0.4c0.2,0.2,0.5,0.2,0.7,0C54.6,30.3,54.6,30,54.5,29.8z
		 M28.9,6.9c3.1,0,5.7,2.6,5.7,5.7c0,1.2-0.4,2.3-1,3.2l0,0c0,0-0.1,0.1-0.1,0.1c-0.1,0.2-0.2,0.3-0.3,0.4c0,0-0.1,0.1-0.1,0.1
		c-0.1,0.1-0.2,0.3-0.4,0.4c0,0-0.1,0.1-0.1,0.1c-0.3,0.3-0.7,0.5-1.1,0.7c0,0,0,0,0,0c-0.2,0.1-0.4,0.2-0.5,0.2c0,0-0.1,0-0.1,0
		c-0.2,0.1-0.3,0.1-0.5,0.2c-0.1,0-0.1,0-0.2,0c-0.2,0-0.3,0.1-0.5,0.1c-0.1,0-0.1,0-0.2,0c-0.2,0-0.4,0-0.6,0c-0.2,0-0.4,0-0.6,0
		c0,0-0.1,0-0.1,0c-0.2,0-0.3-0.1-0.5-0.1c0,0-0.1,0-0.1,0c-0.2,0-0.4-0.1-0.5-0.2c0,0,0,0-0.1,0c-0.8-0.3-1.5-0.8-2.1-1.4
		c0,0,0,0,0-0.1c-0.1-0.1-0.3-0.3-0.4-0.5c0,0-0.1-0.1-0.1-0.1l-0.1-0.1c-0.6-0.9-1-2-1-3.2C23.2,9.4,25.7,6.9,28.9,6.9z M39.1,46
		l-0.5,0.3l0,4.8c0,0.1-0.1,0.2-0.1,0.3l-3.5,0c0,0-0.1-0.1-0.1-0.3v-3.2l-1.2,0.3c-3.4,0.8-6.7,0.7-9.9-0.1l-1.2-0.3v3.3
		c0,0.2-0.1,0.3,0,0.3l-3.6,0c0,0-0.1-0.1-0.1-0.3l0-4.1l0.2-0.8l-0.6-0.4c-1.9-1.2-3.5-2.6-4.7-4.3L13.5,41H8.4c-0.6,0-1-0.5-1-1
		v-8.5c0-0.6,0.5-1,1-1H11l0.2-0.8c0.5-2.2,1.4-4.3,2.9-6.1l0.4-0.6l-2.1-2.8c0.9-0.2,2.2,0.1,3.3,0.8l0.6,0.4l0.5-0.4
		c1.8-1.5,4-2.6,6.4-3.3c0,0,0,0,0.1,0.1c0.1,0.2,0.3,0.3,0.5,0.5c0,0,0.1,0.1,0.1,0.1c0.2,0.1,0.3,0.3,0.5,0.4c0,0,0.1,0.1,0.1,0.1
		c0.1,0.1,0.1,0.1,0.2,0.2c-1.2,0.3-2.4,0.8-3.6,1.3c-0.5,0.2-0.7,0.8-0.4,1.3c0.2,0.5,0.8,0.7,1.3,0.4c2.2-1.1,4.6-1.7,7.1-1.7
		c2.6,0,5.2,0.6,7.5,1.8c0.1,0.1,0.3,0.1,0.4,0.1c0.3,0,0.7-0.2,0.8-0.5c0.2-0.5,0.1-1-0.4-1.3c-1.3-0.7-2.7-1.2-4.2-1.6
		c0,0,0.1-0.1,0.1-0.1c0.1,0,0.1-0.1,0.2-0.1c0.1-0.1,0.3-0.2,0.4-0.4c0.1-0.1,0.1-0.1,0.2-0.2c0.2-0.1,0.3-0.3,0.4-0.5
		c0,0,0.1-0.1,0.1-0.1c7.5,2.1,12.6,8.3,12.6,15.2C47.3,38,44.2,43,39.1,46z M51.8,30.3c-0.1,0.1-0.1,0.1-0.2,0.1
		c-0.2,0-0.5-0.1-0.5-0.3c0-0.1,0-0.3,0.1-0.4c0.1,0,0.1,0,0.2,0c0.2,0,0.4,0,0.6,0.1C51.9,30,51.9,30.2,51.8,30.3z M18.5,29.5
		c0,0.9-0.7,1.6-1.6,1.6c-0.9,0-1.6-0.7-1.6-1.6s0.7-1.6,1.6-1.6C17.8,27.9,18.5,28.6,18.5,29.5z"/>
</g>
</svg>
