<?xml version="1.0" encoding="utf-8"?>
<!-- Generator: Adobe Illustrator 22.1.0, SVG Export Plug-In . SVG Version: 6.00 Build 0)  -->
<svg version="1.1" id="Layer_1" xmlns="http://www.w3.org/2000/svg" xmlns:xlink="http://www.w3.org/1999/xlink" x="0px" y="0px"
	 viewBox="0 0 150 50" style="enable-background:new 0 0 150 50;" xml:space="preserve">
<style type="text/css">
	.st0{fill:#FFFFFF;}
	.st1{fill:none;}
	.st2{font-family:'MyriadPro-Regular';}
	.st3{font-size:12px;}
</style>
<g>
	<path class="st0" d="M5.6,49.5c-2.8,0-5.1-2.3-5.1-5.1V5.6c0-2.8,2.3-5.1,5.1-5.1h138.8c2.8,0,5.1,2.3,5.1,5.1v38.8
		c0,2.8-2.3,5.1-5.1,5.1H5.6z"/>
	<path d="M144.4,1c2.5,0,4.6,2.1,4.6,4.6v38.8c0,2.5-2.1,4.6-4.6,4.6H5.6C3.1,49,1,46.9,1,44.4V5.6C1,3.1,3.1,1,5.6,1H144.4
		 M144.4,0H5.6C2.5,0,0,2.5,0,5.6v38.8C0,47.5,2.5,50,5.6,50h138.8c3.1,0,5.6-2.5,5.6-5.6V5.6C150,2.5,147.5,0,144.4,0L144.4,0z"/>
</g>
<rect x="11" y="18" class="st1" width="114" height="10"/>
<text transform="matrix(1 0 0 1 11 26.52)" class="st2 st3">PLACEHOLDER IMAGE</text>
</svg>
