<?xml version="1.0" encoding="utf-8"?>
<!-- Generator: Adobe Illustrator 23.0.1, SVG Export Plug-In . SVG Version: 6.00 Build 0)  -->
<svg version="1.1" id="Layer_1" xmlns="http://www.w3.org/2000/svg" xmlns:xlink="http://www.w3.org/1999/xlink" x="0px" y="0px"
	 viewBox="0 0 60 60" style="enable-background:new 0 0 60 60;" xml:space="preserve">
<style type="text/css">
	.st0{fill:#FFFFFF;}
	.st1{fill:none;stroke:#000000;stroke-width:2;stroke-miterlimit:10;}
	.st2{fill:#FFFFFF;stroke:#000000;stroke-width:2;stroke-miterlimit:10;}
	.st3{stroke:#000000;stroke-width:0.5;stroke-miterlimit:10;}
</style>
<g>
	<path class="st0" d="M3.7,58.5c-1.2,0-2.2-1-2.2-2.2V3.7c0-1.2,1-2.2,2.2-2.2h52.5c1.2,0,2.2,1,2.2,2.2v52.5c0,1.2-1,2.2-2.2,2.2
		L3.7,58.5L3.7,58.5z"/>
	<path d="M56.3,2c1,0,1.7,0.8,1.7,1.7v52.5c0,1-0.8,1.7-1.7,1.7H3.7c-1,0-1.7-0.8-1.7-1.7V3.7C2,2.8,2.8,2,3.7,2H56.3 M56.3,1H3.7
		C2.2,1,1,2.2,1,3.7v52.5C1,57.8,2.2,59,3.7,59h52.5c1.5,0,2.7-1.2,2.7-2.7V3.7C59,2.2,57.8,1,56.3,1L56.3,1z"/>
</g>
<path class="st1" d="M13.8,38.5h14c0.6,0,1.2,0.3,1.6,0.8l3.6,4.6c0.2,0.2,0.5,0.1,0.5-0.2V25.8c0-1.8-1.5-3.3-3.3-3.3H13.8
	c-1.8,0-3.3,1.5-3.3,3.3v9.3C10.5,37,12,38.5,13.8,38.5z"/>
<path class="st2" d="M47.2,28.5h-14c-0.6,0-1.2,0.3-1.6,0.8L28,33.9c-0.2,0.2-0.5,0.1-0.5-0.2V15.8c0-1.8,1.5-3.3,3.3-3.3h16.3
	c1.8,0,3.3,1.5,3.3,3.3v9.3C50.5,27,49,28.5,47.2,28.5z"/>
<g>
	<path class="st3" d="M32.3,23.8c0-0.4,0.3-0.8,0.7-0.8s0.7,0.3,0.7,0.8c0,0.4-0.3,0.8-0.7,0.8C32.6,24.6,32.3,24.2,32.3,23.8z"/>
	<path class="st3" d="M34.8,23.8c0-0.4,0.3-0.8,0.7-0.8s0.7,0.3,0.7,0.8c0,0.4-0.3,0.8-0.7,0.8C35.1,24.6,34.8,24.2,34.8,23.8z"/>
	<path class="st3" d="M37.3,23.8c0-0.4,0.3-0.8,0.7-0.8s0.7,0.3,0.7,0.8c0,0.4-0.3,0.8-0.7,0.8C37.5,24.6,37.3,24.2,37.3,23.8z"/>
	<path class="st3" d="M39.8,23.8c0-0.4,0.3-0.7,0.7-0.7s0.7,0.3,0.7,0.7c0,0.4-0.3,0.7-0.7,0.7C40.1,24.6,39.8,24.2,39.8,23.8z
		 M40.1,22.1l-0.2-5.8h1.2l-0.2,5.8C40.9,22.1,40.1,22.1,40.1,22.1z"/>
</g>
<g>
	<path class="st3" d="M14.3,33.8c0-0.4,0.3-0.8,0.7-0.8s0.7,0.3,0.7,0.8c0,0.4-0.3,0.8-0.7,0.8S14.3,34.2,14.3,33.8z"/>
	<path class="st3" d="M16.8,33.8c0-0.4,0.3-0.8,0.7-0.8c0.4,0,0.7,0.3,0.7,0.8c0,0.4-0.3,0.8-0.7,0.8C17.1,34.6,16.8,34.2,16.8,33.8
		z"/>
	<path class="st3" d="M19.3,33.8c0-0.4,0.3-0.8,0.7-0.8c0.4,0,0.7,0.3,0.7,0.8c0,0.4-0.3,0.8-0.7,0.8C19.5,34.6,19.3,34.2,19.3,33.8
		z"/>
	<path class="st3" d="M22.8,32.1v-0.3c-0.1-0.6,0.1-1.4,0.7-2.1c0.5-0.6,0.8-1.1,0.8-1.6c0-0.6-0.4-1-1.1-1c-0.4,0-0.9,0.1-1.2,0.4
		l-0.3-0.8c0.4-0.3,1.1-0.5,1.7-0.5c1.4,0,2,0.9,2,1.8c0,0.8-0.5,1.4-1,2.1c-0.5,0.6-0.7,1.2-0.7,1.8v0.3L22.8,32.1L22.8,32.1z
		 M22.5,33.8c0-0.4,0.3-0.8,0.7-0.8s0.7,0.3,0.7,0.8c0,0.4-0.3,0.7-0.7,0.7C22.8,34.6,22.5,34.2,22.5,33.8z"/>
</g>
</svg>
