<svg version="1.1" id="Layer_1" xmlns="http://www.w3.org/2000/svg" xmlns:xlink="http://www.w3.org/1999/xlink" x="0px" y="0px"
	 viewBox="0 0 60 60" style="enable-background:new 0 0 60 60;" xml:space="preserve">
<style type="text/css">
	.st0{fill:#FFFFFF;}
</style>
<g>
	<path class="st0" d="M3.7,58.5c-1.2,0-2.2-1-2.2-2.2V3.7c0-1.2,1-2.2,2.2-2.2h52.5c1.2,0,2.2,1,2.2,2.2v52.5c0,1.2-1,2.2-2.2,2.2
		H3.7z"/>
	<path d="M56.3,2c1,0,1.7,0.8,1.7,1.7v52.5c0,1-0.8,1.7-1.7,1.7H3.7c-1,0-1.7-0.8-1.7-1.7V3.7C2,2.8,2.8,2,3.7,2H56.3 M56.3,1H3.7
		C2.2,1,1,2.2,1,3.7v52.5C1,57.8,2.2,59,3.7,59h52.5c1.5,0,2.7-1.2,2.7-2.7V3.7C59,2.2,57.8,1,56.3,1L56.3,1z"/>
</g>
<path d="M52.7,43.5L39.3,39c-0.3-0.1-0.6-0.2-0.9-0.2H27.3l-18-17.6c-1.2-1.1-3-1.1-4.1,0c-1.1,1.2-1.1,3,0,4.1l18.8,18.4
	c0.5,0.5,1.3,0.8,2,0.8h1.3V52h-3.8c-0.1,0-0.2,0.1-0.2,0.2v3.2c0,0.1,0.1,0.2,0.2,0.2H41c0.1,0,0.2-0.1,0.2-0.2v-3.2
	c0-0.1-0.1-0.2-0.2-0.2h-4.6v-7.3h1.5l12.8,4.3c0.3,0.1,0.6,0.2,0.9,0.2c1.2,0,2.4-0.8,2.8-2C55,45.7,54.2,44,52.7,43.5z"/>
<path d="M39.4,5v16.9h1.9v-1c0-0.1,0.1-0.2,0.2-0.2h1c0.1,0,0.2,0.1,0.2,0.2v1h0.8v-1c0-0.1,0.1-0.2,0.2-0.2h1
	c0.1,0,0.2,0.1,0.2,0.2v1h1.1v-1c0-0.1,0.1-0.2,0.2-0.2h1c0.1,0,0.2,0.1,0.2,0.2v1h0.8v-1c0-0.1,0.1-0.2,0.2-0.2h1
	c0.1,0,0.2,0.1,0.2,0.2v1h0.8v-1c0-0.1,0.1-0.2,0.2-0.2h1c0.1,0,0.2,0.1,0.2,0.2v1h2.1c0.1,0,0.2,0.1,0.2,0.2v4.1
	c0,0.1-0.1,0.2-0.2,0.2h-15v1.6c0,0.5-0.4,1-1,1c-0.5,0-1-0.4-1-1V4.9"/>
<path d="M17,24.4c2.8,0,5-2.3,5-5c0-2.8-2.3-5-5-5c-2.8,0-5,2.3-5,5C11.9,22.2,14.2,24.4,17,24.4z"/>
<path d="M52.5,35.6l-10.7-4.1c-0.3-0.1-0.7-0.2-1-0.2h-10l-7-6.8c-1.2-1.1-3-1.1-4.1,0.1c-1.1,1.2-1.1,3,0.1,4.1l7.8,7.6
	c0.5,0.5,1.3,0.8,2,0.8h10.6l10.2,3.9c0.3,0.1,0.7,0.2,1,0.2c1.2,0,2.3-0.7,2.7-1.9C54.8,37.9,54,36.2,52.5,35.6z"/>
</svg>
